C:\Users\r0593348\3dpredictsim\Results\Batchsim_tmt_linear_v2\Pog_s1_tmt_bCst_d00_k500_ig24_act_GRF.mot
nRows=17
nColumns=19

name C:\Users\r0593348\3dpredictsim\Results\Batchsim_tmt_linear_v2\Pog_s1_tmt_bCst_d00_k500_ig24_act_GRF.mot
datacolumns 19
datarows 17
range 0.0000000000 0.2094199100
endheader
time 	ground_force_vx	ground_force_vy	ground_force_vz	ground_force_px	ground_force_py	ground_force_pz	1_ground_force_vx	1_ground_force_vy	1_ground_force_vz	1_ground_force_px	1_ground_force_py	1_ground_force_pz	ground_torque_x	ground_torque_y	ground_torque_z	1_ground_torque_x	1_ground_torque_y	1_ground_torque_z
        0.0000000000	      -84.0882441967	       66.2968645027	        8.2457551818	        0.3965224830	        0.0000000000	        0.0337661794	       61.6201611122	      306.1760612555	      -10.2677993553	       -0.3853113937	        0.0000000000	       -0.0518609714	        0.0000000000	        0.0000000000	        0.0000000000	        0.0000000000	        0.0000000000	        0.0000000000	
        0.0130887444	     -169.9850445892	      156.6377062815	       15.6391610699	        0.3767625913	        0.0000000000	        0.0423031991	       30.8593206784	      242.3767222796	      -11.8017794395	       -0.3637132873	        0.0000000000	       -0.0524376066	        0.0000000000	        0.0000000000	        0.0000000000	        0.0000000000	        0.0000000000	        0.0000000000	
        0.0261774887	     -200.7095140044	      460.8766101541	       -0.6253069444	        0.3474580185	        0.0000000000	        0.0531406650	       36.5520559340	      210.6351945609	      -14.7008200130	       -0.3631434303	        0.0000000000	       -0.0526128354	        0.0000000000	        0.0000000000	        0.0000000000	        0.0000000000	        0.0000000000	        0.0000000000	
        0.0392662331	     -213.2386289147	      672.3892053762	       -7.5973411762	        0.3317207076	        0.0000000000	        0.0571071187	       33.5581992503	      171.6988609873	      -16.9238519366	       -0.3627620914	        0.0000000000	       -0.0527924529	        0.0000000000	        0.0000000000	        0.0000000000	        0.0000000000	        0.0000000000	        0.0000000000	
        0.0523549775	     -214.2669411942	      827.6418605768	      -10.6607757269	        0.3223357219	        0.0000000000	        0.0595682395	       26.5517303423	      121.4703835576	      -17.2442619136	       -0.3623245375	        0.0000000000	       -0.0530315910	        0.0000000000	        0.0000000000	        0.0000000000	        0.0000000000	        0.0000000000	        0.0000000000	
        0.0654437219	     -210.5672458554	      858.1001794935	      -11.8681575798	        0.3180904838	        0.0000000000	        0.0606753711	        9.0265642457	       61.6193903663	      -13.0632949355	       -0.3626440481	        0.0000000000	       -0.0533044564	        0.0000000000	        0.0000000000	        0.0000000000	        0.0000000000	        0.0000000000	        0.0000000000	
        0.0785324662	     -196.1725405363	      844.4759637092	      -13.0545006040	        0.3154346635	        0.0000000000	        0.0612315514	      -11.2259593273	       12.8822759142	       -2.8924523723	       -0.3689711903	        0.0000000000	       -0.0527266337	        0.0000000000	        0.0000000000	        0.0000000000	        0.0000000000	        0.0000000000	        0.0000000000	
        0.0916212106	     -180.1292639358	      815.8974374151	      -12.1240087526	        0.3144673328	        0.0000000000	        0.0616751508	      -11.1674899136	        8.7395071559	        0.8817933978	        0.0000000000	        0.0000000000	        0.0000000000	        0.0000000000	        0.0000000000	        0.0000000000	        0.0000000000	        0.0000000000	        0.0000000000	
        0.1047099550	     -160.0442988368	      779.0265447867	      -12.8232324738	        0.3146839468	        0.0000000000	        0.0620961319	      -14.4941826376	        9.6065063790	        1.0327584757	        0.0000000000	        0.0000000000	        0.0000000000	        0.0000000000	        0.0000000000	        0.0000000000	        0.0000000000	        0.0000000000	        0.0000000000	
        0.1177986994	     -141.0569916645	      740.7222821231	      -13.8827622655	        0.3155972716	        0.0000000000	        0.0624901766	      -14.2174890650	        8.2617936428	        1.0526430990	        0.0000000000	        0.0000000000	        0.0000000000	        0.0000000000	        0.0000000000	        0.0000000000	        0.0000000000	        0.0000000000	        0.0000000000	
        0.1308874437	     -123.4507136831	      705.3061833651	      -14.4039815893	        0.3169313867	        0.0000000000	        0.0628744432	      -10.6479624149	        5.5740183901	        0.7689852823	        0.0000000000	        0.0000000000	        0.0000000000	        0.0000000000	        0.0000000000	        0.0000000000	        0.0000000000	        0.0000000000	        0.0000000000	
        0.1439761881	     -107.1634927791	      676.0648053134	      -14.6888505123	        0.3187837825	        0.0000000000	        0.0631873453	       -7.1965393215	        3.4809920901	        0.5061048168	        0.0000000000	        0.0000000000	        0.0000000000	        0.0000000000	        0.0000000000	        0.0000000000	        0.0000000000	        0.0000000000	        0.0000000000	
        0.1570649325	      -95.0311496178	      653.4216658712	      -15.0403534184	        0.3211116572	        0.0000000000	        0.0633543629	       -5.3831154441	        2.4862836473	        0.3076173995	        0.0000000000	        0.0000000000	        0.0000000000	        0.0000000000	        0.0000000000	        0.0000000000	        0.0000000000	        0.0000000000	        0.0000000000	
        0.1701536768	      -85.5064833710	      634.6157895223	      -16.1448168072	        0.3236285357	        0.0000000000	        0.0633808959	       -4.2154321926	        1.8751228442	        0.1883455275	        0.0000000000	        0.0000000000	        0.0000000000	        0.0000000000	        0.0000000000	        0.0000000000	        0.0000000000	        0.0000000000	        0.0000000000	
        0.1832424212	      -77.7717615255	      617.1448052190	      -17.3298020840	        0.3260984615	        0.0000000000	        0.0633210112	       -3.2281548964	        1.3921754019	        0.1061375344	        0.0000000000	        0.0000000000	        0.0000000000	        0.0000000000	        0.0000000000	        0.0000000000	        0.0000000000	        0.0000000000	        0.0000000000	
        0.1963311656	      -71.2709888705	      600.8073179306	      -18.8103111194	        0.3282950778	        0.0000000000	        0.0632094967	       -2.4469248891	        1.0294393682	        0.0537979163	        0.0000000000	        0.0000000000	        0.0000000000	        0.0000000000	        0.0000000000	        0.0000000000	        0.0000000000	        0.0000000000	        0.0000000000	
        0.2094199100	      -65.4323286466	      586.2609018124	      -20.2542814076	        0.3301024023	        0.0000000000	        0.0630790533	       -1.8948803771	        0.7814637723	        0.0230741797	        0.0000000000	        0.0000000000	        0.0000000000	        0.0000000000	        0.0000000000	        0.0000000000	        0.0000000000	        0.0000000000	        0.0000000000	
